<svg xmlns="http://www.w3.org/2000/svg" viewBox="0 0 500 350"><path d="M386.201 53.668c22.993 1.512 48.486-2.012 71.183-.039 20.68 1.798 39.387 19.235 41.189 40.218 4.49 52.275-3.345 111.061-.154 164.012-.861 15.872-22.137 38.188-37.864 38.188h-26.211v35.928c0 3.553-4.503 11.527-7.547 13.884-8.886 6.878-18.621 4.491-26.7-2.074-16.812-13.662-31.209-34.647-48.689-47.714l-147.653.015c-15.871.489-40.081-21.609-40.081-37.039v-15.551l-19.238.556-48.139 48.266c-9.303 7.758-22.378 5.827-28.736-4.488-.832-1.349-3.383-7.324-3.383-8.406v-35.928H40.106c-17.12 0-39.142-21.709-40.106-39.158L.103 39.306C3.86 16.844 22.744.913 45.414.003l296.371.058C359.082-1.32 386.2 20.865 386.2 38.117v15.551ZM86.645 269.236l3.217-1.602 47.625-46.636 204.36.019c11.457-1.212 20.875-9.029 21.932-20.913 4.43-49.826-3.439-106.153-.002-156.667-1.1-11.72-11.451-20.354-23.005-20.91H46.487c-11.524.525-21.662 7.255-23.94 18.9.86 49.351-5.025 104.403-1.201 153.309.669 8.563 3.467 17.407 11.068 22.152 1.574.983 8.501 4.085 9.833 4.085h44.399v48.261Zm325.232 4.29h46.538c5.969 0 16.859-11.388 17.587-17.761l-.439-163.518C474.192 86.582 464 76.19 458.415 76.19H386.2v129.233c0 15.633-24.695 38.073-40.119 38.073H185.069c-.808 13.815 5.042 25.901 18.788 29.964l158.053.285 46.75 46.44 3.217 1.602z"/><path d="M267.19 83.975c8.423-1.143 19.302-.71 27.299 2.109 28.953 10.207 36.082 47.281 16.993 70.016l5.122 6.442c-3.697 1.783-10.624 9.959-13.822 10.836-4.005 1.098-4.233-5.135-7.178-5.874-1.788-.449-14.433 3.21-19.074 3.141-56.724-.846-57.536-80.131-9.341-86.67Zm22.612 44.85 7.606 9.048c16.192-41.962-48.858-50.257-42.706-5.471 1.705 12.412 14.572 20.507 26.648 18.857l-7.477-11.772c3.452-.095 13.536-12.348 15.929-10.661ZM139.067 168.423l32.588-83.732 26.104.229 31.175 83.504h-23.537l-3.728-11.814-34.105-.91-4.96 12.724h-23.537Zm56.702-31.101c-4.21-9.465-6.412-21.335-10.657-30.607-.487-1.063-.653-2.516-2.169-2.639l-10.71 33.246zM136.927 84.77v18.232H96.273v13.942h39.584v18.233H96.273v33.246H74.876V84.77z"/></svg>