<svg xmlns="http://www.w3.org/2000/svg" id="brush" version="1.1" viewBox="0 0 500 450"><defs><linearGradient id="linear-gradient" x1="118.301" x2="118.301" y1="21.078" y2="217.157" gradientUnits="userSpaceOnUse"><stop offset=".141" stop-color="#fff100"/><stop offset="1" stop-color="#ff8e01"/></linearGradient><linearGradient id="linear-gradient1" x1="381.699" x2="381.699" y1="6.699" y2="198.856" gradientUnits="userSpaceOnUse"><stop offset=".137" stop-color="#fb901c"/><stop offset="1" stop-color="#f13d24"/></linearGradient><linearGradient id="linear-gradient2" x1="147.573" x2="148.88" y1="252.404" y2="411.881" gradientUnits="userSpaceOnUse"><stop offset=".137" stop-color="#97d23c"/><stop offset="1" stop-color="#1f7e18"/></linearGradient><linearGradient id="linear-gradient3" x1="350.857" x2="352.411" y1="254.348" y2="444.018" gradientUnits="userSpaceOnUse"><stop offset=".137" stop-color="#36aeed"/><stop offset="1" stop-color="#243873"/></linearGradient><style>.st4{fill:#fff}</style></defs><path d="M0 174.02h57.516v52.287h179.085V6.699z" style="fill:url(#linear-gradient)"/><path d="M263.399 226.307h175.163V174.02H500l-87.582-57.517V36.765h-52.287v36.601L263.399 6.699z" style="fill:url(#linear-gradient1)"/><path d="M60.131 255.065h176.471V443.3H60.131z" style="fill:url(#linear-gradient2)"/><path d="M263.399 255.065H439.87V443.3H263.399z" style="fill:url(#linear-gradient3)"/><g id="x6aapH"><path d="M140.429 165.586c-1.645-3.303 1.169-5.465 1.903-8.424 1.939-7.807-2.61-13.383-9.642-7.831-9.676 7.638-13.526 23.884-10.903 35.527 1.687 7.49 7.197 12.095 4.932 20.87-2.099 8.131-13.465 9.944-17.524 2.397-4.978-9.253 7.295-19.68 7.275-29.382-.029-13.562-20.866-29.444-28.017-40.554-1.175-2.278-.881-5.848 1.152-7.564l68.222-57.502c6.388-3.885 10.505 3.713 13.821 7.99 2.698-1.141 3.889-3.463 6.848-4.463 4.851-1.639 8.072-.364 11.64 2.997 4.061 3.825 17.159 19.077 19.924 23.618 2.771 4.55 2.311 10.001-1.432 13.87l-38.702 32.593c-1.695 1.184.436 4.349 1.655 4.743 1.578.51 6.198-1.09 8.237 1.114l34.973 34.672c9.563 13.002-10.021 29.291-20.847 16.082-7.228-8.819-15.177-21.051-21.784-30.641-1.578-2.29-5.998-7.967-6.455-10.219-.585-2.885.848-5.24.65-6.595-.11-.758-1.764-2.105-2.302-3.132-2.605-4.975-1.066-8.082 2.538-11.77 10.623-10.873 27.659-20.665 37.504-31.616 2.327-2.589 1.818-3.812.012-6.601-3.101-4.789-13.239-16.556-17.441-20.66-3.944-3.852-6.931-3.482-10.199.994 2.868 5.001 12.604 11.261 8.755 17.685-8.762 8.649-19.745 15.794-28.521 24.293-7.883 7.634-11.267 13.346-8.249 24.67 1.063 3.988 5.456 11.043 1.188 14.568-2.695 2.225-7.617 1.472-9.21-1.727Zm14.87-85.876c-20.792 14.656-40.075 36.07-60.795 51.33l-1.313 2.642 1.644.145 65.589-54.697c2.614-.155 6.243 8.697 8.833 7.532 1.019-.628-.189-1.934-.598-2.534-.962-1.41-5.349-6.639-6.673-7.033-2.458-.733-4.756 1.255-6.686 2.615Z" class="st4"/><path d="M146.464 180.152c1.445 2.184 4.358 5.12 4.5 7.853.347 6.698-8.012 8.746-10.902 3.119-2.683-5.223 3.718-8.648 4.666-13.285 1.539-.258 1.026 1.239 1.736 2.313m2.732 9.58c-2.761-.881-5.193 2.056-7.704.443.67 4.412 7.04 3.619 7.704-.443" class="st4"/></g><g id="ps7uXy.tif"><path d="M358.895 204.603c3.251-2.752 11.588-5.328 11.792-10.585.162-4.181-8.761-16.551-10.104-21.28 2.986.143 4.65-2.78 5.322-5.658l7.763.026c-1.174 6.142 7.337 8.024 8.875 2.601.673-2.372.709-11.38.369-14.038-.852-6.666-10.172-5.975-9.244 1.132l-7.763.026c-.066-1.545-2.543-5.653-3.845-5.653h-12.872l2.96-7.499c5.428 3.17 10.823 3.158 14.69-2.661l12.111-23.612c.554-.701 3.71 1.405 4.947-1.969.647-1.765.344-3.073-.964-4.31-10.035-5.78-19.671-13.351-29.664-19.081-2.125-1.218-4.603-2.85-6.133.373-1.591 3.351 1.297 4.474 1.155 5.477l-12.834 25.139c-1.39 5.863 1.222 11.11 6.148 13.397-1.949 3.763-3.689 10.736-5.965 13.994-.341.489-.408.629-1.01.753-4.709.969-9.977-1.793-14.35 1.874-1.143.959-1.962 2.788-2.763 3.493-.664.584-1.58.623-2.307 1.187-2.841 2.205-2.539 6.508.251 8.637.577.44 1.42.438 2.056.997.891.784 1.698 2.682 3 3.699 4.43 3.459 12.065.677 17.283 1.897l14.84 28.513 2.879 3.13h3.376Zm-5.45-104.018 20.647 12.867c.991.275-.778 3.309-.933 3.409-1.854 1.198-4.757-1.269-5.543-1.217-1.277.085-2.189 1.66-5.135 1.316-1.297-.151-2.845-1.347-3.305-1.316-1.287.088-2.186 1.66-5.135 1.316-1.297-.151-2.845-1.347-3.305-1.316-1.004.069-3.428 2.318-5.343 1.315zM285.041 161.485v.937c.49.379.781 1.382 1.262 1.644.808.439 16.166.511 17.962.255 3.051-.435 3.046-4.295 0-4.736-1.787-.258-17.154-.184-17.962.255-.481.262-.772 1.265-1.262 1.644ZM288.209 142.481c-2.268-.013-3.107 3.001-1.209 4.411l16.174 7.844c2.356.386 3.705-3.096 1.423-4.423l-16.389-7.831ZM303.755 169.083 287 177.016c-2.214 1.959-.725 4.973 2.049 4.194 1.813-.509 14.205-6.509 15.549-7.614 2.005-1.65 1.364-3.681-.843-4.513" class="st4"/><path d="M336.106 190.777c.657 4.101 5.905 5.433 9.085 4.921.579-.093.72.267.628-.704l-9.714-18.511c.48 4.272-.648 10.25 0 14.294Z" class="st4"/></g><g id="PDXDii"><path d="M201.243 392.771c-.783 4.727-10.587 8.541-14.623 9.817-20.489 6.476-55.982 6.562-76.043-1.358-3.447-1.361-9.691-4.487-10.628-8.381l.02-96.908c1.2-3.687 9.437-6.375 12.895-7.348 14.88-4.185 32.159-4.52 47.524-3.829 9.852.442 30.924 2.261 38.612 8.54 7.513 6.136-4.454 10.555-9.171 12.018-13.408 4.158-31.443 5.051-45.499 4.636-10.07-.297-36.022-2.445-43.165-9.666-.418-.423-.643-1.182-1.135-1.453.206 5.701.646 11.476 1.52 17.115.486 3.139 1.393 9.097 3.206 11.607 2.651 3.671 5.598-4.892 6.58-6.429 2.052-3.212 3.923-3.27 5.353.421 1.631 4.212 1.35 14.948 4.563 17.654.333.28.65.57 1.118.594 2.356.002 2.796-6.856 4.067-8.26.481-.531 1.327-.817 1.983-.491 2.106 1.046 2.177 12.282 2.469 14.815.219 1.904.864 7.546 2.777 8.33 2.27.93 2.591-1.68 2.869-3.421.867-5.427-.115-19.484 3.757-23.152 1.183-1.121 2.894-1.229 4.255-.353 2.299 1.48 2.476 6.725 5.281 7.307 2.91.604 3.498-2.361 3.945-4.582.662-3.286.601-12.716 5.859-11.887 2.722.429 2.593 6.365 4.761 6.851 4.884 1.096 2.903-11.232 7.978-9.714 1.788.534 5.453 5.73 7.266 7.3 10.933 9.469 18.308-3.182 20.049-13.044l1.558-10.415v93.687ZM141.18 288.088c-7.647.299-27.095 1.695-32.99 6.199-4.744 3.624.66 6.533 4.052 7.764 12.593 4.573 33.028 4.723 46.418 4.195 7.434-.293 29.913-1.522 34.94-6.781 4.063-4.251-4.026-6.976-6.981-7.852-13.053-3.871-31.797-4.059-45.44-3.525Z" class="st4"/><path d="M146.771 299.875c13.508-.533 28.769-.265 41.423 4.231 4.552 1.617 7.508-3.429 1.356-.809-11.78 5.017-34.248 4.985-47.097 4.504-9.211-.345-21.471-.909-30.053-4.262-8.904-3.479-1.145.965 3.659-.336 7.449-2.017 22.969-3.023 30.711-3.329Z" class="st4"/></g><g id="QN84qQ"><path d="M322.524 382.824c4.838 6.985-3.337 15.857-10.47 11.188-4.795-3.139-3.615-8.067-1.592-12.447.564-1.221 3.72-6.237 3.7-6.966-.017-.643-1.625-1.96-1.947-2.65-1.362-2.912.968-9.815 1.373-13.047-.933 1.034-1.82 2.814-2.355 4.126-.515 1.264-.937 3.711-1.443 4.609-.152.27-.267.568-.659.483-.22-.048-2.642-3.069-2.859-3.487-.791-1.524.71-4.986 1.334-6.672.747-2.021 1.771-3.958 2.523-5.975-2.623 2.222-4.745 5.013-6.749 7.799-1.355 1.269-4.077-1.584-4.197-2.782-.162-1.619 1.576-3.648 1.724-5.306-1.806 1.049-2.525 5.367-5.052 2.605-1.375-1.503-.216-3.138-.135-4.909-.632.264-.815 1.579-1.439 1.883-1.815.885-3.911-3.609-4.498-4.915l29.138-29.529 43.062 43.117-25.262 25.685c-1.684 8.51 2.714 16.642 4.741 24.789 1.005 4.041 2.099 7.702.421 11.785-2.561 6.232-10.345 8.671-15.75 4.409-10.904-8.597 3.143-25.979 2.12-36.701-.348-3.643-2.171-4.574-4.863-6.665-.289-.224-.366-.56-.866-.428ZM374.391 344.203l-39.758-39.335c4.303-4.897 7.526-1.04 12.036.351 13.823 4.261 22.04-9.777 30.894-17.934 5.891-5.427 16.222-13.983 24.639-13.104 2.442.255 2.693 1.507 2.751 3.903.262 10.752-15.969 26.001-23.2 33.276-6.347 6.385-11.132 11.179-7.942 21.183.581 1.822 2.806 5.387 2.875 6.931.073 1.652-1.631 3.351-2.294 4.729ZM371.903 350.358c-2.579 2.655-5.071 5.4-7.729 7.986l-.727.144-43.224-43.244 9.928-9.96.727-.144 43.175 43.247c-.002.398-1.8 1.61-2.15 1.971" class="st4"/><path d="M349.031 379.365c2.523 5.952 11.144 14.985 5.09 21.222-4.874 5.022-13.711 1.063-13.151-6.091.192-2.452 5.286-12.297 6.963-14.362.305-.376.492-.879 1.098-.768Z" class="st4"/></g></svg>