<svg xmlns="http://www.w3.org/2000/svg" viewBox="0 0 500 500"><path d="M247.768 498.884 210.6 472.722l-46.188 10.263-28.365-36.441-46.466-5.984-14.266-46.016-40.771-20.646c-2.1-14.617 8.955-49.565-7.811-56.874-5.978-2.606-14.967 2.015-13.339-5.639h43.527c66.288 184.1 319.9 184.062 386.161 0h43.527c1.628 7.654-7.36 3.032-13.339 5.639-17.233 7.512-5.006 42.147-7.845 56.881l-40.741 20.634-14.289 45.998c-12.369 3.223-35.821.949-46.496 5.95-6.379 2.989-25.751 36.306-28.411 36.906l-46.086-10.671-37.168 26.162h-4.464ZM252.232 1.116 289.4 27.278l46.095-10.677 28.374 36.941 46.524 5.922 14.293 45.993 40.771 20.646c2.088 14.526-8.93 49.696 7.811 56.874 5.746 2.464 14.875-1.986 13.317 5.636l-44.703-1.03C384.06 22.523 160.85-.66 73.288 153.645c-3.824 6.739-11.536 30.022-14.127 32.75-2.007 2.112-36.352 2.899-42.366 2.282-4.211-.433-3.706.51-3.398-4.513 33.589 3.187 20.254-35.42 20.404-56.538l41.512-22.169 14.293-45.993 46.496-5.951 28.365-36.525 46.132 10.29 37.169-26.162zM0 309.152V190.848h496.652l3.348 3.348v111.607l-3.348 3.348zm84.821-42.411v-50.223c-4.554-5.208-15.535-5.208-20.089 0v64.732l3.348 3.348h46.875l3.348-17.857zm68.594-53.053c-42.636 8.932-33.16 83.95 22.519 69.389 41.262-10.791 29.678-80.323-22.519-69.389m127.835 15.061c-21.833-31.879-71.256-13.545-66.78 25.487 3.593 31.324 50.094 42.982 65.744 14.715-13.443-15.28-14.882-3.896-24.816-2.236-33.428 5.584-23.917-55.887 11.331-29.721l14.52-8.245Zm84.809 55.836c-5.047-11.118-21.904-63.773-27.823-69.249-4.098-3.791-13.869-2.754-19.077-1.078l-28.969 70.327c15.697.991 18.137-.177 26.022-13.016l22.037-.535c5.693-.514 5.586 11.398 8.102 13.337.781.601 16.634-.983 19.707.213Zm33.495-17.844v-50.223c-4.554-5.208-15.535-5.208-20.089 0v68.08h50.223l3.348-17.857z"/><path d="M437.5 311.384c-58.446 179.539-316.554 179.549-375 0zm-89.286 4.464H151.785c44.598 70.232 151.838 70.224 196.429 0m-2.228 51.352c-.216 7.64 10.48 8.587 15.518 12.431l5.685-3.454-5.612-20.144c-6.746 5.169-3.68 13.519-15.591 11.167m-191.991.039-16.229-6.438c-16.295 4.508 2.817 40.181 16.229 6.438m15.369 11.392-12.011-6.922c-5.388 7.809-5.841 11.042 1.128 17.776-2.882 2.484-11.288-10.348-11.144-1.12l11.982 7.653 10.044-17.387Zm167.69 10.902c5.788-.572 11.306 5.391 15.567-1.127-4.956-5.789-6.514-16.268-15.556-14.509l4.452 8.891c-5.792.57-11.315-5.391-15.576 1.137 6.574 4.899 6.457 16.746 15.565 14.499zm-157.913 12.951c-3.469-5.405 8.593-12.504.546-17.39l-7.686 12.307-6.847-.054 12.772 9.637 5.101-2.977-3.886-1.522Zm144.484-17.437c-25.532 3.301-17.128 33.149 5.754 17.946zm-129.961 7.36c-1.54-.883-5.718-1.784-6.121.405l2.554 17.538 5.19 3.711 14.534-17.831c-11.962 4.571-11.494-1.147-16.157-3.822Zm25.131 12.706-6.735-6.658c3.748 7.68-2.393 7.962-4.401 14.267l17.773 8.047 2.233-20.088zm61.825-6.288c-10.74 3.191-7.722 23.768 7.927 19.298 14.1-4.028 6.225-23.503-7.927-19.298m-33.003 4.218-15.45 1.012 11.161 4.427-11.173 1.129 8.941 5.567-8.943 5.545 15.612 2.276zm20.207-2.362c-7.071-1.742-2.994 4.104-4.898 6.075-1.668 1.726-7.992 1.158-9.699 5.001-5.18 9.479 9.68 12.628 16.588 8.735zM437.49 188.601l-375.025-1.135C122.722 8.959 378.824 9.279 437.49 188.601M241.059 77.022l-6.763 6.638-13.314-4.394 12.276 20.016zm23.765.611c-12.857 1.308-11.19 23.331 3.626 21.299 12.956-1.778 11.871-22.875-3.626-21.299m23.146 15.001-4.464-13.392-.012 22.31c8.29 2.255 6.285-4.791 11.117-6.667l5.578 11.122 12.31-17.812-11.135 6.66c.497-3.452-.235-12.391-5.579-11.146l-7.815 8.926Zm-75.933-11.153-6.102 3.262 4.051 16.642c12.523 2.059 26.296-7.411 4.544-6.778zm-20.11 6.699-4.504 3.369 4.567 16.717 15.593-4.501c-1.514-7.495-9.634-1.353-11.006-2.232zm131.69 4.458-6.411.23-6.927 17.61 11.136-4.464c-.263 5.007-.265 11.856 6.675 11.167l6.737-16.684-4.505-2.327-4.4 5.608-2.306-11.139Zm-133.885 17.829c-1.86-3.861-5.786-7.213-9.15-9.795-2.052-1.575-7.76-7.395-9.862-3.614l-1.053 22.36c8.517-3.245 8.746-11.924 20.065-8.952Zm140.642 11.139c6.88 2.531 12.399 7.168 20.218 3.527 6.132-10.217.807-16.27-7.978-21.053zM158.47 106.039c-27.61 3.759-4.211 37.116 8.925 12.248-4.931-5.332-7.329 3.421-7.806 3.441-7.252.303-10.959-6.383-6.19-9.027l3.424.042 1.647-6.703Zm213.839 20.436-12.889-7.04-8.808 14.182c.667 3.783 15.928 15.874 11.008 4.776l-4.475-5.556c7.651 2.428 7.486 5.448 15.157-.402zm-236.91-4.337c-8.79.779-14.567 13.837-4.941 19.743 17.039 10.454 23.67-21.404 4.941-19.743m212.815 62.014c-44.185-70.178-151.801-70.395-196.429 0zm20.764-29.728c16.462 12.161 23.577-13.622 10.521-18.329-3.869-1.395-21.514 10.208-10.521 18.329m-241.793-1.541c-31.517-20.824-10.242 8.112-1.367 6.401l8.098-13.065-6.732 6.665ZM157.851 231.511c31.768-7.486 30.259 44.938-1.741 34.233-12.655-4.234-12.849-30.795 1.741-34.233M330.332 239.952l4.478 15.614-13.371-.002c-.713-.632 4.755-20.722 8.893-15.613Z"/><path d="M256.683 331.457c.648.858-.923 5.598-.01 7.357 1.519 2.928 6.247-.057 4.491 6.024-6.253-.655-7.432 2.057-10.074 6.743l-12.254-6.743 4.481-13.381zM229.714 327.08l2.426 11.068-7.809 4.517c-5.456-8.565-10.449-.648-5.383-15.585zM281.08 327.051c4.267 10.095-1.782 8.048-4.33 15.561-7.945-7.544-10.865-1.835-6.464-15.533l10.794-.029ZM323.657 400.643l-5.58 2.207c-6.886-.875-1.758-21.176 5.58-2.207M145.077 367.2l-.011 3.299-5.557 5.567-3.336-3.336c-.82-4.643 5.326-6.494 8.904-5.531ZM284.635 402.914l5.52 3.361-3.361 7.775-5.52-3.361zM214.298 409.611h6.671v4.439h-6.671zM252.184 148.463c.227 5.549 3.792 6.975 8.98 6.698l-4.478 13.391h-13.371l-4.478-13.391c5.188.276 8.753-1.149 8.98-6.698zM277.585 161.05c6.774 3.76 7.007-2.385 3.469 11.87l-10.778.007-2.187-10.743 7.612-4.823c1.592-.424.688 3.026 1.884 3.689M226.144 161.148c5.485 3.554 7.872-3.739 3.57 11.772h-10.767l-2.426-11.068c4.107.52 7.391.22 6.737-4.457 3.472-.96 1.378 2.776 2.885 3.753ZM140.612 137.264h-8.903c-1.075-11.785 9.945-11.877 8.903 0M264.534 83.729l7.775 3.361-3.361 5.52-7.775-3.361zM339.298 121.639c-5.863-5.863 10.986-13.642 8.904-3.372-.543 2.677-7.578 4.697-8.904 3.372M370.534 146.249l11.151-1.123-5.569 7.73z"/></svg>