<svg xmlns="http://www.w3.org/2000/svg" id="Layer_1" version="1.1" viewBox="0 0 375 500"><defs> </defs><g id="QN84qQ"><path d="M106.604 351.488c15.752 22.585-10.865 51.272-34.09 36.175-15.612-10.15-11.77-26.084-5.184-40.246 1.836-3.948 12.112-20.167 12.047-22.524-.055-2.079-5.291-6.337-6.339-8.568-4.435-9.416 3.152-31.736 4.47-42.186-3.038 3.343-5.926 9.099-7.668 13.341-1.677 4.087-3.051 11.999-4.698 14.903-.495.873-.869 1.837-2.146 1.562-.716-.155-8.602-9.923-9.309-11.275-2.575-4.928 2.312-16.122 4.344-21.573 2.432-6.535 5.766-12.798 8.215-19.32-8.54 7.185-15.45 16.209-21.975 25.217-4.412 4.103-13.275-5.122-13.665-8.995-.527-5.235 5.131-11.795 5.613-17.156-5.88 3.392-8.221 17.354-16.449 8.423-4.477-4.86-.703-10.146-.44-15.873-2.058.854-2.654 5.106-4.685 6.088C8.735 252.343 1.911 237.812 0 233.589l94.872-95.479 140.209 139.414-82.252 83.05c-5.483 27.516 8.837 53.81 15.437 80.152 3.272 13.066 6.834 24.904 1.371 38.105-8.339 20.15-33.683 28.037-51.281 14.256-35.503-27.797 10.234-84 6.903-118.669-1.133-11.779-7.069-14.79-15.834-21.551-.941-.724-1.192-1.811-2.82-1.384v.003ZM275.481 226.611 146.03 99.426c14.01-15.834 24.504-3.363 39.189 1.135 45.007 13.777 71.762-31.613 100.59-57.988C304.99 25.026 338.627-2.639 366.033.203c7.951.825 8.768 4.873 8.957 12.62.853 34.765-51.995 84.071-75.538 107.594-20.666 20.645-36.245 36.146-25.859 68.493 1.892 5.891 9.136 17.418 9.361 22.411.238 5.342-5.311 10.835-7.469 15.291h-.003ZM267.38 246.513c-8.397 8.585-16.511 17.46-25.165 25.822l-2.367.466L99.112 132.975l32.325-32.205 2.367-.466L274.38 240.138c-.007 1.287-5.861 5.206-7 6.373Z" class="st0"/><path d="M192.91 340.303c8.215 19.245 36.285 48.452 16.573 68.619-15.87 16.238-44.643 3.437-42.819-19.695.625-7.928 17.211-39.761 22.671-46.438.993-1.216 1.602-2.842 3.575-2.483z" class="st0"/></g></svg>