<svg xmlns="http://www.w3.org/2000/svg" viewBox="0 0 400 500"><path d="M399.311 440.787c-3.087 19.241-41.735 34.766-57.645 39.96-80.77 26.36-220.687 26.71-299.769-5.528C28.308 469.679 3.694 456.954 0 441.104L.079 46.643c4.731-15.008 37.202-25.949 50.833-29.91C109.571-.302 177.686-1.666 238.257 1.147c38.838 1.799 121.905 9.203 152.212 34.762 29.617 24.976-17.558 42.964-36.153 48.919-52.856 16.925-123.951 20.56-179.362 18.871-39.697-1.209-142.002-9.952-170.161-39.345-1.648-1.722-2.535-4.811-4.474-5.914.812 23.206 2.547 46.713 5.992 69.666 1.916 12.777 5.491 37.029 12.638 47.246 10.451 14.943 22.068-19.913 25.939-26.169 8.089-13.074 15.465-13.31 21.102 1.714 6.43 17.145 5.322 60.845 17.988 71.86 1.313 1.14 2.562 2.32 4.407 2.418 9.288.008 11.022-27.907 16.033-33.622 1.896-2.161 5.231-3.326 7.817-1.999 8.302 4.258 8.582 49.994 9.733 60.304.863 7.75 3.406 30.716 10.947 33.907 8.949 3.786 10.214-6.838 11.31-13.925 3.418-22.09-.453-79.309 14.81-94.24 4.663-4.563 11.408-5.003 16.774-1.437 9.063 6.024 9.761 27.374 20.818 29.743 11.472 2.459 13.789-9.61 15.552-18.651 2.61-13.376 2.369-51.76 23.097-48.386 10.73 1.746 10.222 25.909 18.768 27.887 19.253 4.461 11.444-45.72 31.45-39.541 7.048 2.174 21.496 23.324 28.643 29.714 43.099 38.543 72.172-12.952 79.035-53.095l6.142-42.394v381.351zM162.537 14.677c-30.145 1.217-106.811 6.899-130.05 25.233-18.701 14.751 2.602 26.592 15.973 31.603 49.643 18.614 130.2 19.225 182.984 17.076 29.306-1.193 117.92-6.195 137.737-27.602 16.017-17.304-15.871-28.396-27.52-31.961-51.456-15.757-125.347-16.522-179.129-14.348h.004Z"/><path d="M184.577 62.656c53.25-2.17 113.41-1.079 163.294 17.222 17.944 6.582 29.597-13.958 5.345-3.293-46.438 20.422-135.009 20.291-185.661 18.333-36.311-1.404-84.641-3.7-118.472-17.348-35.1-14.161-4.514 3.928 14.424-1.368 29.365-8.21 90.546-12.305 121.066-13.551l.004.004Z"/></svg>