<svg xmlns="http://www.w3.org/2000/svg" id="Layer_1" version="1.1" viewBox="0 0 475 500"><defs><style>.st0{fill:#141414}</style></defs><g id="ps7uXy.tif"><path d="M353.695 500c15.569-12.063 55.496-23.354 56.473-46.396.776-18.326-41.957-72.546-48.389-93.275 14.3.627 22.269-12.185 25.488-24.8l37.178.114c-5.622 26.922 35.138 35.171 42.503 11.401 3.223-10.397 3.396-49.881 1.767-61.531-4.08-29.218-48.715-26.19-44.271 4.962l-37.178.114c-.316-6.772-12.179-24.778-18.414-24.778h-61.646l14.176-32.87c25.995 13.895 51.833 13.842 70.352-11.664l58.001-103.496c2.653-3.073 17.768 6.158 23.692-8.631 3.099-7.736 1.647-13.47-4.617-18.892-48.059-25.335-94.207-58.52-142.064-83.636-10.177-5.339-22.044-12.492-29.372 1.635-7.619 14.688 6.211 19.61 5.531 24.007l-61.464 110.19c-6.657 25.699 5.852 48.697 29.444 58.722-9.334 16.494-17.667 47.058-28.567 61.339-1.633 2.143-1.954 2.757-4.837 3.301-22.552 4.247-47.781-7.859-68.724 8.214-5.474 4.203-9.396 12.22-13.232 15.311-3.18 2.56-7.567 2.731-11.049 5.203-13.606 9.665-12.16 28.526 1.202 37.858 2.763 1.929 6.801 1.92 9.846 4.37 4.267 3.436 8.132 11.756 14.367 16.214 21.216 15.162 57.781 2.967 82.77 8.315l71.07 124.978 13.788 13.719h16.168l.005.004Zm-26.1-455.933 98.881 56.399c4.746 1.205-3.726 14.504-4.468 14.942-8.879 5.251-22.782-5.562-26.546-5.334-6.116.373-10.483 7.276-24.592 5.768-6.211-.662-13.625-5.904-15.828-5.768-6.164.386-10.469 7.276-24.592 5.768-6.211-.662-13.625-5.904-15.828-5.768-4.808.302-16.417 10.16-25.588 5.764l38.567-71.771h-.005ZM0 311.005v4.107c2.347 1.661 3.74 6.058 6.044 7.206 3.87 1.924 77.421 2.24 86.022 1.118 14.612-1.907 14.588-18.826 0-20.759-8.558-1.131-82.152-.807-86.022 1.118C3.74 304.943 2.347 309.339 0 311zM15.172 227.706C4.31 227.649.292 240.86 9.382 247.04l77.459 34.382c11.283 1.692 17.744-13.57 6.815-19.387l-78.489-34.324.005-.004ZM89.624 344.308 9.382 379.08c-10.603 8.587-3.472 21.798 9.813 18.383 8.683-2.231 68.029-28.53 74.466-33.374 9.602-7.232 6.532-16.135-4.037-19.781" class="st0"/><path d="M244.556 439.398c3.147 17.976 28.28 23.814 43.509 21.57 2.773-.408 3.448 1.17 3.008-3.086l-46.521-81.138c2.299 18.725-3.103 44.928 0 62.654z" class="st0"/></g></svg>