<?xml version="1.0" encoding="UTF-8"?>
<svg id="Layer_1" xmlns="http://www.w3.org/2000/svg" version="1.1" viewBox="0 0 48 48">
  <!-- Generator: Adobe Illustrator 29.2.1, SVG Export Plug-In . SVG Version: 2.1.0 Build 116)  -->
  <defs>
    <style>
      .st0 {
        fill: #4ba5f5;
      }
    </style>
  </defs>
  <path class="st0" d="M3.8,18.8l20.1-10.8,20.2,10.8v24.8h-21.4c-.7,1.2-1.6,2.8-2.5,3.9s-.3.5-.6.4l-.7-11.8c1.3.2,3.5.3,4.5-.7s.7-1.1.7-1.2v-2.5h-12.5l-.2.2v2.3c0,.2.8,1.2,1,1.4s1,.5,1.2.5h2.9l-.5,7.5H3.8v-24.8ZM20.5,20c-2.1-.3-4.3,0-6.4.1l.3,4.3c-.4,0-.3,0-.3-.2-.1-.7-.4-3.6-1-3.9l-5.4,1c-.2.3,1,1.7,1.3,2.1,1.3,2.2,2.3,4.8,2.1,7.3h9s.4-.6.4-.6c.7-.1.2.5.8.6s3,0,3.2-.2c.5-.6,1.2-4.2,1.3-5.1s0-3.8-.3-4.7-.3-.3-.5-.3c-.4,0-3.2-.5-3.4-.3,0,1.4.9,2.7.7,4.1s-.1.5-.3.2c-.1-1.6-.8-3-1.5-4.4ZM33.3,23.7h-3.1v2.8h2.9l.2-.2v-2.5ZM37.9,23.7h-2.7l-.2.2v2.5h3v-2.8ZM30.1,28.2v2.8h3.1v-2.8s-.4,0-.5,0-.1-.3-.2-.3c-.2,0-.4.3-.7.3s-1.7,0-1.7,0ZM38.1,28.2h-3.1v2.8h3.1v-2.8Z"/>
  <path class="st0" d="M0,12.8L24.1,0l9.7,5.1c2.4,1.5,5.1,2.7,7.7,4.1s4.4,2.3,6.5,3.6v3.9L24.1,4.2,0,16.8v-3.9Z"/>
</svg>